<svg width="1920" height="1080" viewBox="0 0 1920 1080" fill="none" xmlns="http://www.w3.org/2000/svg">
  <defs>
    <linearGradient id="bg" x1="960" y1="0" x2="960" y2="1080" gradientUnits="userSpaceOnUse">
      <stop stop-color="#F3F8FF"/>
      <stop offset="0.46" stop-color="#E9F2FF"/>
      <stop offset="1" stop-color="#DCEBFF"/>
    </linearGradient>
    <radialGradient id="haloLeft" cx="0" cy="0" r="1" gradientUnits="userSpaceOnUse" gradientTransform="translate(384 176) rotate(31.4296) scale(464.507 273.289)">
      <stop stop-color="#FFFFFF" stop-opacity="0.86"/>
      <stop offset="0.42" stop-color="#F9FBFF" stop-opacity="0.36"/>
      <stop offset="1" stop-color="#F9FBFF" stop-opacity="0"/>
    </radialGradient>
    <radialGradient id="haloRight" cx="0" cy="0" r="1" gradientUnits="userSpaceOnUse" gradientTransform="translate(1538 204) rotate(148.245) scale(428.178 226.517)">
      <stop stop-color="#FFFFFF" stop-opacity="0.64"/>
      <stop offset="0.4" stop-color="#F6FAFF" stop-opacity="0.24"/>
      <stop offset="1" stop-color="#F6FAFF" stop-opacity="0"/>
    </radialGradient>
    <radialGradient id="mist" cx="0" cy="0" r="1" gradientUnits="userSpaceOnUse" gradientTransform="translate(972 856) rotate(90) scale(338 1260)">
      <stop stop-color="#F7FAFF" stop-opacity="0.12"/>
      <stop offset="1" stop-color="#F7FAFF" stop-opacity="0"/>
    </radialGradient>
  </defs>

  <rect width="1920" height="1080" fill="url(#bg)"/>
  <ellipse cx="384" cy="176" rx="464" ry="273" fill="url(#haloLeft)"/>
  <ellipse cx="1538" cy="204" rx="428" ry="226" fill="url(#haloRight)"/>
  <rect y="650" width="1920" height="430" fill="url(#mist)"/>

  <g opacity="0.92" fill="#FFFFFF">
    <circle cx="156" cy="154" r="1.7"/>
    <circle cx="238" cy="272" r="1.4"/>
    <circle cx="358" cy="214" r="1.9"/>
    <circle cx="476" cy="132" r="1.5"/>
    <circle cx="612" cy="246" r="1.3"/>
    <circle cx="748" cy="164" r="1.8"/>
    <circle cx="864" cy="286" r="1.4"/>
    <circle cx="998" cy="122" r="1.9"/>
    <circle cx="1128" cy="248" r="1.4"/>
    <circle cx="1268" cy="148" r="1.5"/>
    <circle cx="1398" cy="232" r="1.8"/>
    <circle cx="1542" cy="126" r="1.6"/>
    <circle cx="1668" cy="256" r="1.4"/>
    <circle cx="1786" cy="172" r="1.8"/>
  </g>

  <g opacity="0.68" fill="#EEF5FF">
    <circle cx="116" cy="338" r="1.2"/>
    <circle cx="302" cy="368" r="1.1"/>
    <circle cx="448" cy="316" r="1.2"/>
    <circle cx="578" cy="398" r="1.1"/>
    <circle cx="708" cy="332" r="1.2"/>
    <circle cx="842" cy="412" r="1.1"/>
    <circle cx="974" cy="352" r="1.2"/>
    <circle cx="1114" cy="404" r="1.1"/>
    <circle cx="1242" cy="334" r="1.2"/>
    <circle cx="1386" cy="388" r="1.1"/>
    <circle cx="1518" cy="328" r="1.2"/>
    <circle cx="1642" cy="402" r="1.1"/>
    <circle cx="1778" cy="348" r="1.2"/>
  </g>

  <g opacity="0.34" stroke="#FFFFFF" stroke-linecap="round">
    <path d="M268 170V194" stroke-width="2"/>
    <path d="M256 182H280" stroke-width="2"/>
    <path d="M714 118V146" stroke-width="2.2"/>
    <path d="M700 132H728" stroke-width="2.2"/>
    <path d="M1324 188V216" stroke-width="2.2"/>
    <path d="M1310 202H1338" stroke-width="2.2"/>
    <path d="M1716 130V156" stroke-width="2"/>
    <path d="M1703 143H1729" stroke-width="2"/>
  </g>
</svg>